<?xml version="1.0" standalone="no"?>
<!DOCTYPE svg PUBLIC "-//W3C//DTD SVG 20010904//EN"
 "http://www.w3.org/TR/2001/REC-SVG-20010904/DTD/svg10.dtd">
<svg version="1.0" xmlns="http://www.w3.org/2000/svg"
 width="711.000000pt" height="230.000000pt" viewBox="0 0 711.000000 230.000000"
 preserveAspectRatio="xMidYMid meet">

<g transform="translate(0.000000,230.000000) scale(0.100000,-0.100000)"
fill="#000000" stroke="none">
<path d="M1019 1736 c-8 -6 -13 -19 -11 -29 3 -14 10 -17 28 -13 13 4 33 2 43
-3 15 -9 17 -7 14 13 -6 28 -53 48 -74 32z"/>
<path d="M837 1726 c-15 -7 -35 -23 -44 -35 -15 -23 -15 -23 7 -11 12 7 33 10
46 7 16 -3 24 0 24 10 0 7 7 16 16 20 13 5 13 7 2 14 -16 10 -16 10 -51 -5z"/>
<path d="M1207 1695 c18 -24 53 -34 53 -15 0 9 -51 40 -65 40 -3 0 2 -11 12
-25z"/>
<path d="M705 1690 c-3 -6 1 -7 9 -4 18 7 21 14 7 14 -6 0 -13 -4 -16 -10z"/>
<path d="M666 1664 c-17 -12 -17 -14 -4 -14 9 0 20 5 23 11 11 17 2 18 -19 3z"/>
<path d="M782 1605 c-12 -14 -31 -25 -41 -25 -24 0 -36 -16 -20 -26 6 -3 9
-19 5 -35 -5 -29 -5 -29 19 -13 17 11 35 14 60 10 32 -6 35 -5 35 18 0 14 9
31 22 40 l22 16 -26 0 c-15 0 -33 8 -41 20 -13 19 -14 19 -35 -5z"/>
<path d="M1046 1615 c-3 -9 -18 -15 -38 -15 l-33 -1 24 -19 c17 -15 22 -26 17
-44 -6 -24 -5 -25 24 -15 21 8 39 8 60 0 29 -9 30 -9 24 13 -4 18 0 28 17 40
l23 16 -25 0 c-15 0 -38 9 -52 20 -30 24 -33 24 -41 5z"/>
<path d="M1290 1587 c0 -11 -8 -17 -22 -18 l-23 0 23 -16 c13 -9 22 -26 22
-40 0 -21 4 -24 23 -19 14 3 33 -1 45 -10 21 -15 22 -14 13 9 -6 16 -6 28 1
35 7 7 3 14 -13 22 -13 7 -34 22 -46 33 -20 18 -23 18 -23 4z"/>
<path d="M2093 1527 c-40 -41 -73 -81 -73 -90 0 -9 -6 -17 -14 -17 -14 0 -26
-97 -26 -214 0 -59 1 -62 47 -108 l47 -48 -47 0 -47 0 0 -113 0 -112 83 -83
82 -82 205 0 206 0 74 75 c41 41 78 75 83 75 5 0 7 -33 6 -72 l-2 -73 283 -3
284 -2 83 82 83 83 83 -83 82 -82 205 0 206 0 74 75 c41 41 77 75 80 75 4 0 6
-33 6 -72 l-1 -73 285 -3 284 -2 83 82 83 83 0 134 c0 133 0 135 -27 163 l-27
28 27 28 c26 27 27 33 27 135 0 100 -1 107 -20 107 -12 0 -20 7 -20 18 0 10
-33 50 -73 90 l-72 72 -241 0 c-173 0 -243 -3 -252 -12 -7 -7 -12 -43 -12 -90
l0 -78 -40 0 c-31 0 -40 4 -40 17 0 9 -34 50 -75 90 l-76 73 -182 0 -182 0
-73 -73 c-39 -40 -72 -81 -72 -90 0 -13 -9 -17 -40 -17 -31 0 -40 4 -40 17 0
10 -33 50 -72 90 l-72 73 -243 0 c-155 0 -243 -4 -243 -10 0 -6 89 -10 246
-10 l247 0 62 -63 62 -63 -4 -305 -5 -304 -56 -58 -56 -57 -247 0 -246 0 -6
113 c-4 61 -8 254 -9 427 -1 173 -4 278 -5 233 l-4 -83 -39 0 c-31 0 -40 4
-40 17 0 9 -33 49 -74 90 l-75 73 -183 0 -183 0 -72 -73z m511 -16 l68 -68 -7
-67 -7 -66 -134 0 -134 0 0 24 c0 21 -6 24 -40 28 l-40 4 0 -53 0 -53 107 0
107 0 68 -67 68 -67 0 -135 0 -135 -62 -63 -62 -63 -185 0 -185 0 -63 62 -63
62 0 69 0 68 133 -3 132 -3 0 -25 c0 -22 5 -25 43 -28 l43 -3 -3 58 -3 58
-111 5 -111 5 -60 56 -60 55 -7 141 -7 142 63 64 63 64 190 1 191 2 68 -69z
m1469 1 l68 -68 -7 -67 -7 -67 -133 0 -134 0 0 25 c0 23 -4 25 -40 25 l-40 0
0 -50 0 -50 107 0 107 0 68 -67 68 -67 0 -135 0 -135 -62 -63 -62 -63 -185 0
-185 0 -63 62 -63 62 0 68 0 68 135 0 135 0 0 -30 c0 -28 2 -30 40 -30 l40 0
0 61 0 60 -110 -2 -111 -1 -63 61 -64 61 -7 138 -7 139 63 65 64 65 190 1 191
2 67 -68z m734 1 l65 -68 -7 -110 c-6 -110 -6 -110 -43 -147 l-36 -38 37 -38
37 -38 0 -114 0 -114 -57 -58 -57 -58 -251 0 -250 0 -4 425 -3 425 253 0 252
0 64 -67z m-2087 -308 c0 -25 -4 -45 -8 -45 -4 0 -28 20 -52 45 l-44 45 52 0
52 0 0 -45z m1470 0 c0 -25 -3 -45 -7 -45 -10 0 -83 72 -83 82 0 4 20 8 45 8
l45 0 0 -45z m-650 -152 c0 -2 -20 -3 -45 -3 l-45 0 0 47 0 47 45 -44 c25 -24
45 -45 45 -47z"/>
<path d="M4518 1310 l-3 -50 41 0 41 0 -1 50 -1 50 -37 0 -36 0 -4 -50z"/>
<path d="M4517 1044 c-4 -4 -7 -31 -7 -61 l0 -53 45 0 46 0 -3 58 -3 57 -35 3
c-20 2 -39 0 -43 -4z"/>
<path d="M562 1533 c-19 -19 -31 -37 -28 -40 3 -3 0 -15 -6 -27 -10 -19 -10
-20 5 -7 9 7 24 11 32 7 10 -4 15 1 15 15 0 11 12 31 26 44 19 18 23 25 11 25
-8 0 -17 4 -19 8 -1 5 -18 -7 -36 -25z"/>
<path d="M401 1498 c-10 -24 -22 -53 -25 -65 -10 -30 -22 -29 -30 2 -3 13 -21
41 -38 61 l-32 36 -14 -28 c-26 -50 -27 -153 -3 -233 12 -38 26 -73 31 -76 23
-14 7 -22 -34 -18 -34 4 -54 0 -85 -18 l-41 -23 24 -15 c13 -9 55 -45 94 -81
l70 -66 -46 -17 c-26 -9 -63 -30 -82 -46 -35 -30 -35 -30 -10 -31 14 0 56 -20
93 -44 37 -24 89 -50 117 -57 47 -12 59 -29 20 -29 -47 0 -110 -85 -110 -150
0 -35 -1 -35 36 -15 16 8 48 15 71 15 23 0 52 4 66 9 13 5 47 16 75 25 l52 15
-31 -38 c-27 -34 -59 -113 -59 -147 0 -9 12 -8 45 7 25 11 79 26 120 34 82 16
120 32 147 62 17 19 15 20 -55 41 -170 50 -310 195 -373 388 -25 77 -29 104
-29 204 0 124 20 208 72 298 23 41 23 42 4 42 -14 0 -26 -13 -40 -42z"/>
<path d="M1535 1487 c96 -171 93 -412 -8 -601 -17 -32 -64 -94 -104 -136 -76
-81 -151 -127 -246 -151 -47 -11 -47 -12 -30 -31 27 -30 63 -46 147 -63 42 -9
97 -25 122 -35 l46 -20 -7 33 c-11 49 -40 112 -65 137 -12 12 -20 23 -18 25 2
2 30 -6 63 -17 33 -10 91 -23 129 -28 38 -6 75 -15 83 -21 20 -17 24 -7 17 39
-10 62 -38 101 -91 124 l-47 21 57 17 c32 10 82 35 112 55 29 21 68 40 86 44
l32 6 -37 29 c-20 15 -60 36 -88 46 l-51 18 25 13 c14 8 58 44 96 81 l71 67
-35 22 c-27 17 -45 20 -80 16 -39 -4 -44 -2 -38 12 42 99 47 121 47 196 1 49
-5 93 -14 114 l-14 33 -28 -28 c-16 -16 -35 -43 -42 -61 -8 -18 -18 -33 -22
-33 -5 0 -15 21 -21 47 -15 55 -28 73 -53 73 -16 0 -16 -4 6 -43z"/>
<path d="M1452 1515 c24 -59 43 -95 50 -95 4 0 -1 17 -11 38 -20 37 -46 76
-39 57z"/>
<path d="M5200 1460 l0 -50 35 0 35 0 0 -108 c0 -60 -3 -177 -7 -260 l-6 -152
-29 0 -28 0 0 -110 0 -110 180 0 180 0 0 110 0 110 -35 0 -35 0 0 310 0 310
-145 0 -145 0 0 -50z"/>
<path d="M5640 1425 l0 -85 110 0 110 0 0 35 0 35 70 0 70 0 0 -75 0 -75 -88
0 -88 0 -89 -73 -90 -73 -3 -222 -2 -222 295 0 295 0 0 145 0 145 -115 0 -115
0 0 -35 0 -36 -67 3 -68 3 -3 73 -3 72 108 0 109 0 72 73 72 72 0 163 0 162
-290 0 -290 0 0 -85z"/>
<path d="M6330 1460 l0 -50 35 0 35 0 -2 -257 -3 -258 -32 -3 -33 -3 0 -110 0
-109 258 0 258 0 67 68 67 68 0 340 c0 251 -3 343 -12 352 -9 9 -95 12 -325
12 l-313 0 0 -50z m430 -305 l0 -255 -70 0 -70 0 0 255 0 255 70 0 70 0 0
-255z"/>
<path d="M1058 1410 c-14 -25 -23 -30 -55 -30 l-38 0 29 -23 c26 -21 28 -28
23 -60 -6 -37 -5 -37 16 -22 28 20 52 19 84 -2 l25 -17 -7 34 c-7 30 -4 37 21
57 l29 23 -27 0 c-27 0 -52 19 -73 54 -9 14 -12 13 -27 -14z"/>
<path d="M746 1391 c-10 -19 -26 -31 -48 -35 l-33 -7 23 -16 c15 -11 22 -25
22 -50 l0 -34 29 17 c23 14 34 15 61 6 l32 -12 -6 34 c-6 29 -3 37 20 55 l27
21 -31 0 c-23 0 -36 7 -48 25 -21 32 -30 31 -48 -4z"/>
<path d="M1341 1374 c-9 -21 -17 -25 -41 -22 l-29 4 24 -28 c19 -23 22 -33 15
-58 -9 -32 -7 -33 25 -20 14 5 26 2 43 -13 l22 -20 0 35 c0 20 7 41 16 49 14
11 13 14 -11 27 -15 7 -32 27 -39 43 l-12 30 -13 -27z"/>
<path d="M516 1344 c-4 -16 -17 -37 -29 -46 -18 -14 -20 -19 -9 -29 6 -7 12
-29 12 -48 0 -32 1 -33 14 -16 9 12 20 16 35 12 21 -5 22 -3 17 27 -5 25 -1
40 15 59 l20 27 -26 0 c-17 0 -28 7 -34 22 -7 21 -8 20 -15 -8z"/>
<path d="M3040 1145 l0 -215 45 0 45 0 0 93 c0 52 -3 149 -7 215 l-6 122 -39
0 -38 0 0 -215z"/>
<path d="M1506 1272 c5 -9 8 -35 8 -57 1 -30 5 -41 16 -41 9 0 17 7 17 16 1 8
2 20 4 25 5 23 -14 63 -33 68 -16 4 -18 2 -12 -11z"/>
<path d="M1056 1152 c-13 -25 -23 -32 -46 -32 -35 0 -38 -10 -9 -28 17 -11 20
-20 15 -47 l-7 -34 31 16 c28 14 33 14 49 -1 25 -22 32 -20 25 8 -4 18 1 30
21 48 l27 25 -29 6 c-20 4 -34 16 -44 39 l-16 33 -17 -33z"/>
<path d="M757 1136 c-11 -24 -24 -36 -37 -36 -25 0 -26 -16 -1 -29 10 -6 21
-24 25 -42 6 -31 6 -31 31 -15 19 12 30 14 44 6 29 -15 31 -13 24 20 -4 22 0
36 12 50 18 19 17 20 -6 20 -15 0 -34 12 -49 31 l-26 30 -17 -35z"/>
<path d="M1325 1117 c-14 -23 -24 -28 -46 -25 -26 4 -27 4 -12 -19 13 -19 14
-29 4 -49 -15 -34 -15 -34 19 -28 22 5 31 2 36 -10 9 -24 24 -19 24 7 0 13 11
34 25 47 l26 24 -23 12 c-13 7 -25 25 -28 41 l-6 28 -19 -28z"/>
<path d="M537 1092 c3 -14 -1 -30 -12 -42 -18 -20 -18 -21 3 -40 11 -11 24
-29 27 -41 7 -20 8 -21 17 -5 6 11 16 15 29 11 20 -7 20 -5 5 22 -9 19 -11 34
-5 44 14 22 11 29 -12 29 -11 0 -29 10 -39 23 l-19 22 6 -23z"/>
<path d="M1501 1041 c-1 -8 -8 -11 -21 -8 -17 4 -19 1 -14 -19 4 -15 0 -34
-10 -49 -14 -21 -14 -25 -2 -25 8 0 16 -4 18 -9 2 -4 12 6 23 23 15 23 19 40
14 66 -4 19 -7 29 -8 21z"/>
<path d="M456 973 c8 -32 34 -76 41 -69 3 3 -2 15 -11 28 -9 12 -16 33 -16 45
0 13 -5 23 -10 23 -6 0 -8 -11 -4 -27z"/>
<path d="M1037 904 c-10 -13 -27 -24 -39 -24 -20 0 -20 -1 -5 -18 10 -10 17
-27 17 -38 0 -15 8 -19 35 -21 28 -1 35 2 35 16 0 10 7 24 15 31 19 16 19 30
0 30 -8 0 -20 11 -27 24 l-13 24 -18 -24z"/>
<path d="M814 898 c-4 -12 -14 -28 -23 -35 -11 -8 -12 -12 -3 -13 7 0 21 -14
31 -31 12 -19 21 -26 26 -19 4 6 15 8 26 5 17 -6 19 -3 14 18 -4 14 -2 28 4
31 19 12 12 26 -13 26 -14 0 -31 9 -39 21 l-15 21 -8 -24z"/>
<path d="M1245 880 c-10 -11 -27 -20 -37 -20 -15 0 -18 -5 -13 -21 4 -13 0
-27 -11 -40 -16 -18 -16 -19 -1 -13 10 3 24 1 31 -5 11 -10 16 -8 21 9 3 11
18 26 31 33 22 11 23 15 11 26 -8 6 -13 21 -10 31 7 25 1 25 -22 0z"/>
<path d="M634 845 c1 -24 6 -37 19 -41 10 -3 25 -16 33 -29 15 -23 17 -23 32
-8 12 12 13 18 4 21 -6 2 -12 15 -12 28 0 19 -5 24 -24 24 -14 0 -31 9 -39 20
-13 18 -13 17 -13 -15z"/>
<path d="M1384 819 c-3 -6 -15 -9 -25 -6 -12 3 -19 0 -19 -9 0 -8 -11 -24 -25
-36 -17 -15 -21 -24 -13 -29 15 -10 65 28 83 63 13 27 13 39 -1 17z"/>
<path d="M586 776 c5 -14 74 -72 74 -63 0 6 -68 77 -74 77 -3 0 -3 -7 0 -14z"/>
<path d="M894 702 c0 -10 12 -27 27 -40 l27 -22 -2 25 c0 14 -5 25 -10 25 -5
0 -17 7 -26 15 -14 13 -16 12 -16 -3z"/>
<path d="M1009 700 c-8 -9 -13 -24 -10 -32 5 -15 9 -14 30 3 13 10 19 19 13
19 -6 0 -12 6 -14 13 -2 9 -7 9 -19 -3z"/>
<path d="M1100 684 c-9 -3 -21 -13 -28 -24 -12 -19 -11 -19 23 -3 19 9 35 20
35 25 0 8 -4 9 -30 2z"/>
<path d="M817 671 c4 -4 21 -13 37 -20 25 -10 28 -10 17 2 -6 8 -23 17 -37 20
-14 2 -22 1 -17 -2z"/>
<path d="M1145 650 c-8 -13 5 -13 25 0 13 8 13 10 -2 10 -9 0 -20 -4 -23 -10z"/>
<path d="M795 640 c3 -5 14 -10 23 -10 15 0 15 2 2 10 -20 13 -33 13 -25 0z"/>
</g>
</svg>
